<!DOCTYPE svg PUBLIC "-//W3C//DTD SVG 1.1//EN" "http://www.w3.org/Graphics/SVG/1.1/DTD/svg11.dtd">

<!-- Uploaded to: SVG Repo, www.svgrepo.com, Transformed by: SVG Repo Mixer Tools -->
<svg width="131px" height="131px" viewBox="0 0 1024 1024" class="icon" version="1.1" xmlns="http://www.w3.org/2000/svg" fill="#d24141" stroke="#d24141">

<g id="SVGRepo_bgCarrier" stroke-width="0"/>

<g id="SVGRepo_tracerCarrier" stroke-linecap="round" stroke-linejoin="round"/>

<g id="SVGRepo_iconCarrier">

<path d="M981.333333 469.333333a21.333333 21.333333 0 0 0-21.333333 21.333334v85.333333a85.333333 85.333333 0 0 1-85.333333 85.333333H149.333333a85.333333 85.333333 0 0 1-85.333333-85.333333V149.333333a85.333333 85.333333 0 0 1 85.333333-85.333333h725.333334a85.333333 85.333333 0 0 1 85.333333 85.333333 21.333333 21.333333 0 0 0 42.666667 0 128 128 0 0 0-128-128H149.333333a128 128 0 0 0-128 128v426.666667a128 128 0 0 0 128 128h725.333334a128 128 0 0 0 128-128v-85.333333a21.333333 21.333333 0 0 0-21.333334-21.333334z" fill="#d24141"/>

<path d="M981.333333 298.666667a21.333333 21.333333 0 0 0-21.333333 21.333333v85.333333a21.333333 21.333333 0 0 0 42.666667 0v-85.333333a21.333333 21.333333 0 0 0-21.333334-21.333333zM966.186667 219.52a21.333333 21.333333 0 0 0 0 30.293333 21.333333 21.333333 0 0 0 30.293333 0l2.56-3.413333a11.946667 11.946667 0 0 0 1.92-3.626667 13.226667 13.226667 0 0 0 1.706667-3.84 26.88 26.88 0 0 0 0-4.266666 21.333333 21.333333 0 0 0-36.48-15.146667zM896 960H128a21.333333 21.333333 0 0 0 0 42.666667h768a21.333333 21.333333 0 0 0 0-42.666667zM682.666667 853.333333a21.333333 21.333333 0 0 0 0-42.666666H341.333333a21.333333 21.333333 0 0 0 0 42.666666zM704 384a21.333333 21.333333 0 0 0 0-42.666667h-44.373333a149.333333 149.333333 0 0 0-28.16-67.84l31.36-31.36a21.333333 21.333333 0 1 0-30.08-30.08l-31.573334 31.146667A149.333333 149.333333 0 0 0 533.333333 215.04V170.666667a21.333333 21.333333 0 0 0-42.666666 0v44.373333a149.333333 149.333333 0 0 0-67.84 28.16l-31.573334-31.36a21.333333 21.333333 0 0 0-30.08 30.08l31.36 31.36A149.333333 149.333333 0 0 0 364.373333 341.333333H320a21.333333 21.333333 0 0 0 0 42.666667h44.373333a149.333333 149.333333 0 0 0 28.16 67.84l-31.36 31.36a21.333333 21.333333 0 1 0 30.08 30.08l31.36-31.36A149.333333 149.333333 0 0 0 490.666667 510.293333V554.666667a21.333333 21.333333 0 0 0 42.666666 0v-44.373334a149.333333 149.333333 0 0 0 67.84-28.16l31.36 31.36a21.333333 21.333333 0 0 0 30.08-30.08l-31.146666-31.573333A149.333333 149.333333 0 0 0 659.626667 384z m-192 85.333333a106.666667 106.666667 0 1 1 106.666667-106.666666 106.666667 106.666667 0 0 1-106.666667 106.666666z" fill="#d24141"/>

</g>

</svg>